<?xml version="1.0" encoding="utf-8" standalone="no"?>
<!DOCTYPE svg PUBLIC "-//W3C//DTD SVG 1.1//EN"
  "http://www.w3.org/Graphics/SVG/1.1/DTD/svg11.dtd">
<svg xmlns:xlink="http://www.w3.org/1999/xlink" width="720pt" height="360pt" viewBox="0 0 720 360" xmlns="http://www.w3.org/2000/svg" version="1.1">
 <metadata>
  <rdf:RDF xmlns:dc="http://purl.org/dc/elements/1.1/" xmlns:cc="http://creativecommons.org/ns#" xmlns:rdf="http://www.w3.org/1999/02/22-rdf-syntax-ns#">
   <cc:Work>
    <dc:type rdf:resource="http://purl.org/dc/dcmitype/StillImage"/>
    <dc:date>2024-01-29T15:21:56.801492</dc:date>
    <dc:format>image/svg+xml</dc:format>
    <dc:creator>
     <cc:Agent>
      <dc:title>Matplotlib v3.8.2, https://matplotlib.org/</dc:title>
     </cc:Agent>
    </dc:creator>
   </cc:Work>
  </rdf:RDF>
 </metadata>
 <defs>
  <style type="text/css">*{stroke-linejoin: round; stroke-linecap: butt}</style>
 </defs>
 <g id="figure_1">
  <g id="patch_1">
   <path d="M 0 360 
L 720 360 
L 720 0 
L 0 0 
L 0 360 
z
" style="fill: none"/>
  </g>
  <g id="axes_1">
   <g id="line2d_1">
    <path d="M 115.363636 307.8 
L 119.42588 307.689039 
L 120.441441 307.495668 
L 121.457002 307.119414 
L 122.472563 306.477955 
L 123.488124 305.483487 
L 124.503686 304.048316 
L 125.519247 302.089915 
L 126.534808 299.535152 
L 127.550369 296.323577 
L 128.56593 292.40974 
L 129.581491 287.764589 
L 131.104832 279.403822 
L 132.628174 269.403704 
L 134.151515 257.87171 
L 136.182637 240.422464 
L 138.72154 216.081443 
L 147.861589 124.89403 
L 149.892711 107.753783 
L 151.923833 92.766547 
L 153.447174 83.105113 
L 154.970516 74.881914 
L 156.493857 68.138308 
L 157.509419 64.47156 
L 158.52498 61.465113 
L 159.540541 59.111077 
L 160.556102 57.397249 
L 161.571663 56.307575 
L 162.079443 55.990839 
L 162.587224 55.82261 
L 163.095004 55.8 
L 163.602785 55.919967 
L 164.110565 56.179326 
L 165.126126 57.102837 
L 166.141687 58.542678 
L 167.157248 60.469504 
L 168.172809 62.85285 
L 169.696151 67.215354 
L 171.219492 72.427472 
L 172.742834 78.381789 
L 174.773956 87.292813 
L 177.312858 99.655565 
L 180.359541 115.711152 
L 193.561835 186.954244 
L 196.608518 201.602483 
L 199.655201 215.129492 
L 202.194103 225.489761 
L 204.733006 235.003774 
L 207.271908 243.677476 
L 209.810811 251.532883 
L 212.349713 258.604091 
L 214.888616 264.933826 
L 217.427518 270.570529 
L 219.966421 275.565949 
L 222.505324 279.9732 
L 225.044226 283.845232 
L 227.583129 287.233671 
L 230.122031 290.187954 
L 232.660934 292.754739 
L 235.199836 294.977519 
L 237.738739 296.896411 
L 240.277641 298.548077 
L 242.816544 299.965753 
L 245.863227 301.399986 
L 248.90991 302.585884 
L 252.464373 303.708129 
L 256.018837 304.599609 
L 260.081081 305.392624 
L 264.651106 306.060653 
L 270.236691 306.638263 
L 276.837838 307.084957 
L 285.470106 307.42566 
L 297.149058 307.647177 
L 316.952498 307.768049 
L 373.316134 307.799707 
L 622.636364 307.8 
L 622.636364 307.8 
" clip-path="url(#pdbd7f3ec45)" style="fill: none; stroke: #8b0000; stroke-width: 1.5; stroke-linecap: square"/>
   </g>
   <g id="line2d_2">
    <path d="M 115.363636 307.8 
L 119.933661 307.71664 
L 121.457002 307.477195 
L 122.472563 307.146484 
L 123.488124 306.612493 
L 124.503686 305.813136 
L 125.519247 304.685253 
L 126.534808 303.167667 
L 127.550369 301.203916 
L 128.56593 298.744555 
L 129.581491 295.74897 
L 130.597052 292.186689 
L 132.120393 285.741136 
L 133.643735 277.961246 
L 135.167076 268.885144 
L 136.690418 258.602738 
L 138.72154 243.254694 
L 141.260442 222.037237 
L 145.830467 181.139547 
L 149.38493 150.10991 
L 151.923833 129.892836 
L 153.954955 115.441558 
L 155.986077 102.818452 
L 157.509419 94.668394 
L 159.03276 87.707537 
L 160.556102 81.965222 
L 161.571663 78.818899 
L 162.587224 76.215942 
L 163.602785 74.15059 
L 164.618346 72.613924 
L 165.633907 71.594173 
L 166.649468 71.077026 
L 167.157248 71.001835 
L 167.665029 71.045929 
L 168.68059 71.482389 
L 169.696151 72.366261 
L 170.711712 73.676024 
L 171.727273 75.389051 
L 172.742834 77.481853 
L 174.266175 81.280269 
L 175.789517 85.795944 
L 177.312858 90.945408 
L 179.34398 98.654475 
L 181.882883 109.379095 
L 184.929566 123.385459 
L 190.007371 148.110766 
L 196.100737 177.65299 
L 199.655201 193.910601 
L 202.701884 206.973666 
L 205.748567 219.106255 
L 208.79525 230.242436 
L 211.334152 238.74259 
L 213.873055 246.536367 
L 216.411957 253.639502 
L 218.95086 260.077292 
L 221.489762 265.882087 
L 224.028665 271.091127 
L 226.567568 275.744727 
L 229.10647 279.88478 
L 231.645373 283.553548 
L 234.184275 286.792716 
L 236.723178 289.642666 
L 239.26208 292.141946 
L 241.800983 294.326903 
L 244.339885 296.231447 
L 246.878788 297.886924 
L 249.925471 299.585021 
L 252.972154 301.010507 
L 256.018837 302.203042 
L 259.573301 303.346115 
L 263.127764 304.267009 
L 267.190008 305.098745 
L 271.760033 305.811745 
L 277.345618 306.441146 
L 283.946765 306.94031 
L 292.071253 307.315984 
L 302.734644 307.57604 
L 319.4914 307.735492 
L 355.036036 307.795881 
L 622.636364 307.8 
L 622.636364 307.8 
" clip-path="url(#pdbd7f3ec45)" style="fill: none; stroke: #8b0000; stroke-opacity: 0.966667; stroke-width: 1.5; stroke-linecap: square"/>
   </g>
   <g id="line2d_3">
    <path d="M 115.363636 307.8 
L 120.949222 307.702273 
L 122.472563 307.483861 
L 123.995905 307.009662 
L 125.011466 306.48254 
L 126.027027 305.733994 
L 127.042588 304.718023 
L 128.058149 303.389843 
L 129.07371 301.707571 
L 130.089271 299.633692 
L 131.104832 297.136279 
L 132.120393 294.18994 
L 133.643735 288.890996 
L 135.167076 282.513776 
L 136.690418 275.068349 
L 138.213759 266.602382 
L 140.244881 253.872762 
L 142.276003 239.750719 
L 145.322686 216.717395 
L 153.447174 153.82648 
L 155.986077 136.472967 
L 158.017199 124.076034 
L 160.048321 113.219101 
L 161.571663 106.174605 
L 163.095004 100.116986 
L 164.618346 95.069304 
L 165.633907 92.269654 
L 166.649468 89.921337 
L 167.665029 88.020536 
L 168.68059 86.56106 
L 169.696151 85.534544 
L 170.711712 84.930665 
L 171.727273 84.737345 
L 172.742834 84.940957 
L 173.758395 85.526531 
L 174.773956 86.477945 
L 175.789517 87.778117 
L 176.805078 89.40918 
L 178.328419 92.435655 
L 179.851761 96.100867 
L 181.375102 100.339553 
L 183.406224 106.770198 
L 185.437346 113.951302 
L 187.976249 123.758929 
L 191.530713 138.562031 
L 198.63964 169.588792 
L 203.717445 191.14858 
L 207.271908 205.33084 
L 210.318591 216.705571 
L 213.365274 227.273679 
L 216.411957 236.992135 
L 218.95086 244.431297 
L 221.489762 251.275427 
L 224.028665 257.538369 
L 226.567568 263.240978 
L 229.10647 268.409344 
L 231.645373 273.073254 
L 234.184275 277.264885 
L 236.723178 281.017716 
L 239.26208 284.365629 
L 241.800983 287.342201 
L 244.339885 289.980143 
L 246.878788 292.310884 
L 249.41769 294.364263 
L 251.956593 296.16833 
L 255.003276 298.040775 
L 258.049959 299.633146 
L 261.096642 300.982762 
L 264.651106 302.294775 
L 268.205569 303.368085 
L 272.267813 304.353493 
L 276.837838 305.214105 
L 281.915643 305.93041 
L 288.009009 306.541661 
L 295.117936 307.013944 
L 304.257985 307.376075 
L 316.444717 307.61755 
L 336.248157 307.755546 
L 384.995086 307.798845 
L 622.636364 307.8 
L 622.636364 307.8 
" clip-path="url(#pdbd7f3ec45)" style="fill: none; stroke: #8b0000; stroke-opacity: 0.933333; stroke-width: 1.5; stroke-linecap: square"/>
   </g>
   <g id="line2d_4">
    <path d="M 115.363636 307.8 
L 121.964783 307.697198 
L 123.995905 307.405415 
L 125.519247 306.932858 
L 126.534808 306.439651 
L 127.550369 305.764928 
L 128.56593 304.874597 
L 129.581491 303.735212 
L 130.597052 302.31503 
L 131.612613 300.584985 
L 132.628174 298.519521 
L 134.151515 294.746985 
L 135.674857 290.121139 
L 137.198198 284.616729 
L 138.72154 278.235865 
L 140.244881 271.007479 
L 142.276003 260.147866 
L 144.307125 248.068324 
L 146.846028 231.629144 
L 150.908272 203.573527 
L 155.986077 168.790197 
L 158.52498 152.806799 
L 160.556102 141.123158 
L 162.587224 130.621391 
L 164.618346 121.443642 
L 166.141687 115.491413 
L 167.665029 110.369263 
L 169.18837 106.092972 
L 170.711712 102.667134 
L 171.727273 100.853307 
L 172.742834 99.411122 
L 173.758395 98.334882 
L 174.773956 97.617344 
L 175.789517 97.249866 
L 176.805078 97.222547 
L 177.820639 97.524368 
L 178.8362 98.143339 
L 179.851761 99.066624 
L 180.867322 100.280681 
L 181.882883 101.771384 
L 183.406224 104.494131 
L 184.929566 107.755807 
L 186.452907 111.504818 
L 188.484029 117.171974 
L 190.515152 123.491681 
L 193.054054 132.129288 
L 196.100737 143.289681 
L 200.670762 160.950738 
L 208.79525 192.453166 
L 212.857494 207.269457 
L 216.411957 219.390611 
L 219.45864 229.056929 
L 222.505324 238.009575 
L 225.552007 246.230113 
L 228.59869 253.719637 
L 231.137592 259.414003 
L 233.676495 264.627822 
L 236.215397 269.381254 
L 238.7543 273.697597 
L 241.293202 277.602287 
L 243.832105 281.122051 
L 246.371007 284.284204 
L 248.90991 287.116069 
L 251.448812 289.644517 
L 253.987715 291.895607 
L 256.526618 293.894317 
L 259.573301 295.992894 
L 262.619984 297.800351 
L 265.666667 299.351848 
L 268.71335 300.679394 
L 272.267813 301.983518 
L 275.822277 303.062735 
L 279.884521 304.066031 
L 284.454545 304.954978 
L 289.532351 305.707075 
L 295.625717 306.361283 
L 302.734644 306.878515 
L 311.366912 307.26942 
L 323.045864 307.552945 
L 340.310401 307.722751 
L 374.839476 307.793144 
L 618.57412 307.8 
L 622.636364 307.8 
L 622.636364 307.8 
" clip-path="url(#pdbd7f3ec45)" style="fill: none; stroke: #8b0000; stroke-opacity: 0.9; stroke-width: 1.5; stroke-linecap: square"/>
   </g>
   <g id="line2d_5">
    <path d="M 115.363636 307.8 
L 122.980344 307.699675 
L 125.011466 307.458054 
L 126.534808 307.085732 
L 128.058149 306.466062 
L 129.581491 305.515287 
L 130.597052 304.654901 
L 131.612613 303.584038 
L 132.628174 302.278984 
L 133.643735 300.717916 
L 135.167076 297.854655 
L 136.690418 294.319594 
L 138.213759 290.077134 
L 139.737101 285.110515 
L 141.260442 279.422429 
L 143.291564 270.756446 
L 145.322686 260.949919 
L 147.861589 247.321456 
L 150.908272 229.468326 
L 161.571663 165.153093 
L 164.110565 151.851291 
L 166.141687 142.277828 
L 168.172809 133.786884 
L 169.696151 128.184595 
L 171.219492 123.269664 
L 172.742834 119.059887 
L 174.266175 115.56435 
L 175.789517 112.784006 
L 176.805078 111.324841 
L 177.820639 110.177154 
L 178.8362 109.336076 
L 179.851761 108.795603 
L 180.867322 108.548696 
L 181.882883 108.58738 
L 182.898444 108.902843 
L 183.914005 109.48554 
L 184.929566 110.325281 
L 185.945127 111.411333 
L 187.468468 113.477649 
L 188.99181 116.033626 
L 190.515152 119.038725 
L 192.546274 123.672826 
L 194.577396 128.933883 
L 197.116298 136.244481 
L 200.162981 145.854082 
L 203.717445 157.848879 
L 218.95086 210.323128 
L 222.505324 221.401136 
L 226.059787 231.721582 
L 229.10647 239.915018 
L 232.153153 247.484845 
L 235.199836 254.427754 
L 238.246519 260.753278 
L 240.785422 265.566795 
L 243.324324 269.980407 
L 245.863227 274.01223 
L 248.402129 277.682329 
L 250.941032 281.012048 
L 253.479934 284.023445 
L 256.018837 286.738818 
L 258.55774 289.180317 
L 261.604423 291.779098 
L 264.651106 294.050816 
L 267.697789 296.029698 
L 270.744472 297.747785 
L 273.791155 299.234757 
L 277.345618 300.713662 
L 280.900082 301.954034 
L 284.962326 303.123804 
L 289.02457 304.072288 
L 293.594595 304.922642 
L 298.6724 305.65189 
L 304.765766 306.296456 
L 311.874693 306.81605 
L 320.506962 307.218121 
L 332.185913 307.518854 
L 348.94267 307.703898 
L 380.425061 307.788195 
L 535.805897 307.8 
L 622.636364 307.8 
L 622.636364 307.8 
" clip-path="url(#pdbd7f3ec45)" style="fill: none; stroke: #8b0000; stroke-opacity: 0.866667; stroke-width: 1.5; stroke-linecap: square"/>
   </g>
   <g id="line2d_6">
    <path d="M 115.363636 307.8 
L 123.995905 307.707321 
L 126.534808 307.432315 
L 128.058149 307.088528 
L 129.581491 306.541827 
L 131.104832 305.728908 
L 132.628174 304.584159 
L 134.151515 303.043136 
L 135.674857 301.045906 
L 137.198198 298.540069 
L 138.72154 295.483269 
L 140.244881 291.845126 
L 141.768223 287.608528 
L 143.291564 282.770309 
L 145.322686 275.404229 
L 147.353808 267.052357 
L 149.38493 257.816346 
L 151.923833 245.235609 
L 155.478296 226.271032 
L 164.110565 179.406919 
L 166.649468 166.906642 
L 169.18837 155.52625 
L 171.219492 147.37833 
L 173.250614 140.176769 
L 174.773956 135.436285 
L 176.297297 131.283775 
L 177.820639 127.731342 
L 179.34398 124.78463 
L 180.867322 122.443236 
L 181.882883 121.215858 
L 182.898444 120.251915 
L 183.914005 119.547431 
L 184.929566 119.09757 
L 185.945127 118.896707 
L 186.960688 118.9385 
L 187.976249 119.215959 
L 188.99181 119.721523 
L 190.007371 120.44712 
L 191.022932 121.384243 
L 192.546274 123.16702 
L 194.069615 125.374446 
L 195.592957 127.974169 
L 197.624079 131.993523 
L 199.655201 136.572409 
L 202.194103 142.963143 
L 204.733006 149.955572 
L 208.287469 160.485795 
L 213.365274 176.388174 
L 222.505324 205.105576 
L 226.567568 217.135318 
L 230.122031 227.052046 
L 233.676495 236.311265 
L 236.723178 243.685363 
L 239.769861 250.523387 
L 242.816544 256.822293 
L 245.863227 262.589169 
L 248.90991 267.839121 
L 251.956593 272.593388 
L 255.003276 276.877684 
L 258.049959 280.720771 
L 261.096642 284.153259 
L 264.143325 287.206608 
L 267.190008 289.912326 
L 270.236691 292.301339 
L 273.283374 294.403509 
L 276.330057 296.247274 
L 279.37674 297.859414 
L 282.931204 299.48069 
L 286.485667 300.856963 
L 290.547912 302.17179 
L 294.610156 303.252829 
L 299.18018 304.236462 
L 304.257985 305.094124 
L 309.843571 305.811477 
L 316.444717 306.427312 
L 324.061425 306.912333 
L 333.709255 307.29497 
L 346.403767 307.563907 
L 365.699427 307.728254 
L 405.306306 307.794427 
L 622.636364 307.8 
L 622.636364 307.8 
" clip-path="url(#pdbd7f3ec45)" style="fill: none; stroke: #8b0000; stroke-opacity: 0.833333; stroke-width: 1.5; stroke-linecap: square"/>
   </g>
   <g id="line2d_7">
    <path d="M 115.363636 307.8 
L 125.519247 307.690529 
L 128.058149 307.427765 
L 130.089271 306.983886 
L 131.612613 306.446695 
L 133.135954 305.680085 
L 134.659296 304.63342 
L 136.182637 303.256888 
L 137.705979 301.503739 
L 139.22932 299.332348 
L 140.752662 296.70799 
L 142.276003 293.604271 
L 143.799345 290.004176 
L 145.322686 285.900713 
L 147.353808 279.653597 
L 149.38493 272.554496 
L 151.416052 264.669435 
L 153.954955 253.851517 
L 157.001638 239.76843 
L 161.571663 217.38201 
L 167.157248 190.209097 
L 170.203931 176.465292 
L 172.742834 165.981761 
L 174.773956 158.369287 
L 176.805078 151.531117 
L 178.8362 145.52819 
L 180.359541 141.60105 
L 181.882883 138.180915 
L 183.406224 135.274979 
L 184.929566 132.885644 
L 186.452907 131.010836 
L 187.468468 130.043905 
L 188.484029 129.300184 
L 189.49959 128.776197 
L 190.515152 128.467821 
L 191.530713 128.370345 
L 192.546274 128.47852 
L 193.561835 128.786607 
L 194.577396 129.288433 
L 195.592957 129.977437 
L 197.116298 131.346732 
L 198.63964 133.097131 
L 200.162981 135.20305 
L 201.686323 137.638101 
L 203.717445 141.350307 
L 205.748567 145.535572 
L 208.287469 151.335139 
L 211.334152 158.967341 
L 214.888616 168.547421 
L 219.966421 182.95092 
L 229.614251 210.394134 
L 234.184275 222.622383 
L 238.246519 232.802099 
L 241.800983 241.094192 
L 245.355446 248.771181 
L 248.402129 254.848439 
L 251.448812 260.460423 
L 254.495495 265.614231 
L 257.542179 270.323036 
L 260.588862 274.6047 
L 263.635545 278.480537 
L 266.682228 281.974261 
L 269.728911 285.11107 
L 272.775594 287.916897 
L 275.822277 290.417788 
L 278.86896 292.63941 
L 281.915643 294.606663 
L 285.470106 296.612043 
L 289.02457 298.339286 
L 292.579034 299.821458 
L 296.641278 301.254022 
L 300.703522 302.446733 
L 305.273546 303.546581 
L 310.351351 304.520101 
L 315.936937 305.348091 
L 322.030303 306.025044 
L 329.13923 306.591028 
L 337.771499 307.048789 
L 348.94267 307.399958 
L 364.176085 307.634531 
L 389.05733 307.762809 
L 454.561016 307.799422 
L 622.636364 307.8 
L 622.636364 307.8 
" clip-path="url(#pdbd7f3ec45)" style="fill: none; stroke: #8b0000; stroke-opacity: 0.8; stroke-width: 1.5; stroke-linecap: square"/>
   </g>
   <g id="line2d_8">
    <path d="M 115.363636 307.8 
L 126.534808 307.707883 
L 129.581491 307.439886 
L 131.612613 307.055231 
L 133.643735 306.413721 
L 135.167076 305.710106 
L 136.690418 304.772001 
L 138.213759 303.560385 
L 139.737101 302.038229 
L 141.260442 300.171931 
L 142.783784 297.932596 
L 144.307125 295.29711 
L 145.830467 292.248979 
L 147.353808 288.778924 
L 149.38493 283.493965 
L 151.416052 277.473697 
L 153.447174 270.758474 
L 155.986077 261.483419 
L 158.52498 251.38259 
L 162.079443 236.236358 
L 173.250614 187.680975 
L 176.297297 175.947807 
L 178.8362 167.120172 
L 180.867322 160.778655 
L 182.898444 155.136842 
L 184.929566 150.235264 
L 186.452907 147.061901 
L 187.976249 144.327666 
L 189.49959 142.035798 
L 191.022932 140.185992 
L 192.546274 138.774638 
L 193.561835 138.074151 
L 194.577396 137.562964 
L 195.592957 137.237896 
L 196.608518 137.095297 
L 197.624079 137.131079 
L 198.63964 137.340758 
L 199.655201 137.719487 
L 201.178542 138.593166 
L 202.701884 139.816897 
L 204.225225 141.370877 
L 205.748567 143.234373 
L 207.779689 146.163411 
L 209.810811 149.552616 
L 211.841933 153.349452 
L 214.380835 158.589064 
L 217.427518 165.468722 
L 220.981982 174.103359 
L 226.059787 187.120372 
L 237.230958 215.975745 
L 241.800983 227.059104 
L 245.863227 236.310872 
L 249.41769 243.874102 
L 252.972154 250.905486 
L 256.526618 257.389049 
L 259.573301 262.508588 
L 262.619984 267.229553 
L 265.666667 271.562366 
L 268.71335 275.521311 
L 271.760033 279.123579 
L 274.806716 282.388443 
L 277.853399 285.336543 
L 280.900082 287.989275 
L 283.946765 290.368296 
L 286.993448 292.495109 
L 290.547912 294.685631 
L 294.102375 296.593545 
L 297.656839 298.249196 
L 301.211302 299.68092 
L 305.273546 301.076455 
L 309.33579 302.24914 
L 313.905815 303.341419 
L 318.98362 304.319381 
L 324.569206 305.161979 
L 330.662572 305.860912 
L 337.771499 306.455059 
L 346.403767 306.945356 
L 357.067158 307.318094 
L 371.285012 307.579973 
L 393.119574 307.736551 
L 439.835381 307.796112 
L 622.636364 307.8 
L 622.636364 307.8 
" clip-path="url(#pdbd7f3ec45)" style="fill: none; stroke: #8b0000; stroke-opacity: 0.766667; stroke-width: 1.5; stroke-linecap: square"/>
   </g>
   <g id="line2d_9">
    <path d="M 115.363636 307.8 
L 128.058149 307.703527 
L 131.104832 307.463741 
L 133.643735 307.025398 
L 135.674857 306.43207 
L 137.198198 305.799513 
L 138.72154 304.971734 
L 140.244881 303.91783 
L 141.768223 302.608122 
L 143.291564 301.015173 
L 144.814906 299.114715 
L 146.338247 296.886467 
L 147.861589 294.314804 
L 149.38493 291.389271 
L 151.416052 286.930387 
L 153.447174 281.838386 
L 155.478296 276.135348 
L 158.017199 268.208669 
L 160.556102 259.500629 
L 163.602785 248.222763 
L 167.665029 232.267991 
L 175.789517 200.121667 
L 178.8362 188.962338 
L 181.375102 180.358502 
L 183.914005 172.526877 
L 185.945127 166.889723 
L 187.976249 161.858074 
L 190.007371 157.46457 
L 191.530713 154.602182 
L 193.054054 152.117595 
L 194.577396 150.013817 
L 196.100737 148.291071 
L 197.624079 146.946972 
L 199.14742 145.976709 
L 200.670762 145.373241 
L 201.686323 145.170308 
L 202.701884 145.123264 
L 203.717445 145.228639 
L 205.240786 145.664159 
L 206.764128 146.420201 
L 208.287469 147.481718 
L 209.810811 148.832673 
L 211.334152 150.45624 
L 213.365274 153.014859 
L 215.396396 155.984622 
L 217.427518 159.322375 
L 219.966421 163.946207 
L 223.013104 170.047457 
L 226.567568 177.752572 
L 231.137592 188.272667 
L 246.878788 225.110257 
L 251.448812 234.953224 
L 255.511057 243.141394 
L 259.06552 249.825768 
L 262.619984 256.039143 
L 266.174447 261.772902 
L 269.22113 266.306934 
L 272.267813 270.49587 
L 275.314496 274.349458 
L 278.361179 277.88031 
L 281.407862 281.103201 
L 284.454545 284.034459 
L 287.501229 286.691429 
L 290.547912 289.092022 
L 294.102375 291.592816 
L 297.656839 293.797756 
L 301.211302 295.734563 
L 304.765766 297.429799 
L 308.82801 299.103559 
L 312.890254 300.529429 
L 317.460278 301.876828 
L 322.030303 302.9916 
L 327.108108 304.00107 
L 332.693694 304.88196 
L 338.78706 305.623088 
L 345.895987 306.263404 
L 354.528256 306.802237 
L 364.683866 307.20653 
L 377.886159 307.503061 
L 397.181818 307.695378 
L 432.726454 307.785896 
L 588.61507 307.799999 
L 622.636364 307.8 
L 622.636364 307.8 
" clip-path="url(#pdbd7f3ec45)" style="fill: none; stroke: #8b0000; stroke-opacity: 0.733333; stroke-width: 1.5; stroke-linecap: square"/>
   </g>
   <g id="line2d_10">
    <path d="M 115.363636 307.8 
L 129.581491 307.704084 
L 133.135954 307.438744 
L 135.674857 307.026169 
L 137.705979 306.489483 
L 139.737101 305.708834 
L 141.768223 304.62585 
L 143.291564 303.580356 
L 144.814906 302.309109 
L 146.338247 300.790856 
L 147.861589 299.006862 
L 149.38493 296.941474 
L 150.908272 294.582586 
L 152.939394 290.967292 
L 154.970516 286.808338 
L 157.001638 282.111601 
L 159.03276 276.896597 
L 161.571663 269.699832 
L 164.110565 261.834776 
L 167.157248 251.677427 
L 171.219492 237.304632 
L 180.359541 204.564793 
L 183.914005 192.845725 
L 186.452907 185.141795 
L 188.99181 178.114205 
L 191.022932 173.03762 
L 193.054054 168.484569 
L 195.085176 164.482246 
L 197.116298 161.049984 
L 198.63964 158.857223 
L 200.162981 156.994135 
L 201.686323 155.460811 
L 203.209664 154.255295 
L 204.733006 153.373719 
L 206.256347 152.810453 
L 207.779689 152.558251 
L 209.30303 152.608411 
L 210.826372 152.950928 
L 212.349713 153.574658 
L 213.873055 154.467466 
L 215.396396 155.616379 
L 216.919738 157.007737 
L 218.95086 159.215394 
L 220.981982 161.793984 
L 223.013104 164.707953 
L 225.552007 168.767427 
L 228.090909 173.225296 
L 231.137592 179.004833 
L 235.199836 187.256594 
L 240.785422 199.206478 
L 251.956593 223.254739 
L 257.034398 233.572858 
L 261.096642 241.357652 
L 265.158886 248.656642 
L 268.71335 254.613632 
L 272.267813 260.154629 
L 275.822277 265.275216 
L 279.37674 269.978858 
L 282.931204 274.275384 
L 286.485667 278.179588 
L 290.040131 281.709996 
L 293.594595 284.887784 
L 297.149058 287.735844 
L 300.703522 290.278004 
L 304.257985 292.538389 
L 307.812449 294.540901 
L 311.366912 296.308813 
L 315.429156 298.070627 
L 319.4914 299.58665 
L 324.061425 301.034688 
L 328.63145 302.24657 
L 333.709255 303.357429 
L 339.29484 304.340038 
L 345.388206 305.179216 
L 352.497133 305.91666 
L 360.621622 306.519127 
L 370.269451 306.997828 
L 382.456183 307.362273 
L 398.70516 307.609256 
L 424.601966 307.751611 
L 485.535627 307.798407 
L 622.636364 307.8 
L 622.636364 307.8 
" clip-path="url(#pdbd7f3ec45)" style="fill: none; stroke: #8b0000; stroke-opacity: 0.7; stroke-width: 1.5; stroke-linecap: square"/>
   </g>
   <g id="line2d_11">
    <path d="M 115.363636 307.8 
L 131.104832 307.708428 
L 134.659296 307.482631 
L 137.198198 307.144001 
L 139.737101 306.574225 
L 141.768223 305.894565 
L 143.799345 304.96555 
L 145.830467 303.740485 
L 147.861589 302.174807 
L 149.38493 300.752555 
L 151.416052 298.497462 
L 153.447174 295.806789 
L 155.478296 292.660971 
L 157.509419 289.050252 
L 159.540541 284.975245 
L 161.571663 280.4471 
L 164.110565 274.183322 
L 166.649468 267.308846 
L 169.696151 258.373045 
L 173.250614 247.229431 
L 179.851761 225.572205 
L 184.929566 209.236141 
L 188.484029 198.548173 
L 191.530713 190.130926 
L 194.069615 183.758163 
L 196.608518 178.04567 
L 198.63964 173.989397 
L 200.670762 170.413762 
L 202.701884 167.334343 
L 204.225225 165.356414 
L 205.748567 163.665055 
L 207.271908 162.260476 
L 208.79525 161.141254 
L 210.318591 160.304437 
L 211.841933 159.745653 
L 213.365274 159.459221 
L 214.888616 159.438265 
L 216.411957 159.674836 
L 217.935299 160.160028 
L 219.45864 160.884096 
L 220.981982 161.836572 
L 222.505324 163.006377 
L 224.536446 164.884112 
L 226.567568 167.099083 
L 228.59869 169.621957 
L 231.137592 173.163155 
L 233.676495 177.080613 
L 236.723178 182.197241 
L 240.277641 188.61827 
L 244.847666 197.367526 
L 253.987715 215.521549 
L 260.588862 228.377693 
L 265.666667 237.774092 
L 270.236691 245.728441 
L 274.298935 252.339303 
L 277.853399 257.743346 
L 281.407862 262.780857 
L 284.962326 267.448764 
L 288.51679 271.75028 
L 292.071253 275.693728 
L 295.625717 279.291469 
L 299.18018 282.558935 
L 302.734644 285.513783 
L 306.289107 288.17516 
L 309.843571 290.563077 
L 313.398034 292.697889 
L 316.952498 294.599872 
L 321.014742 296.513914 
L 325.076986 298.178295 
L 329.13923 299.620017 
L 333.709255 301.007143 
L 338.78706 302.295298 
L 343.864865 303.35623 
L 349.45045 304.303473 
L 355.543817 305.121024 
L 362.652744 305.848314 
L 370.777232 306.451196 
L 380.425061 306.938641 
L 392.611794 307.317939 
L 408.86077 307.582531 
L 433.742015 307.738449 
L 487.566749 307.796536 
L 622.636364 307.799999 
L 622.636364 307.799999 
" clip-path="url(#pdbd7f3ec45)" style="fill: none; stroke: #8b0000; stroke-opacity: 0.666667; stroke-width: 1.5; stroke-linecap: square"/>
   </g>
   <g id="line2d_12">
    <path d="M 115.363636 307.8 
L 133.135954 307.698191 
L 137.198198 307.433917 
L 140.244881 307.003103 
L 142.783784 306.406623 
L 144.814906 305.723415 
L 146.846028 304.816127 
L 148.87715 303.647171 
L 150.908272 302.180811 
L 152.939394 300.384683 
L 154.970516 298.231198 
L 157.001638 295.698735 
L 159.03276 292.772612 
L 161.063882 289.445767 
L 163.095004 285.719171 
L 165.633907 280.513447 
L 168.172809 274.733298 
L 170.711712 268.432328 
L 173.758395 260.283031 
L 177.820639 248.663914 
L 185.437346 225.893359 
L 190.007371 212.58444 
L 193.561835 202.879988 
L 196.608518 195.212182 
L 199.14742 189.378503 
L 201.686323 184.115466 
L 203.717445 180.348863 
L 205.748567 176.997932 
L 207.779689 174.076971 
L 209.810811 171.595481 
L 211.334152 170.025873 
L 212.857494 168.706745 
L 214.380835 167.637219 
L 215.904177 166.815178 
L 217.427518 166.237344 
L 218.95086 165.89936 
L 220.474201 165.795882 
L 221.997543 165.920662 
L 223.520885 166.266643 
L 225.044226 166.826045 
L 226.567568 167.590455 
L 228.59869 168.913019 
L 230.629812 170.561599 
L 232.660934 172.512616 
L 234.692056 174.74171 
L 237.230958 177.88126 
L 239.769861 181.367601 
L 242.816544 185.940607 
L 246.371007 191.709259 
L 250.941032 199.621913 
L 257.542179 211.584123 
L 267.697789 229.967094 
L 272.775594 238.70483 
L 277.345618 246.149297 
L 281.407862 252.375421 
L 285.470106 258.200613 
L 289.532351 263.606977 
L 293.086814 267.988401 
L 296.641278 272.045112 
L 300.195741 275.782843 
L 303.750205 279.210907 
L 307.304668 282.341417 
L 310.859132 285.188584 
L 314.413595 287.768103 
L 317.968059 290.096625 
L 322.030303 292.472462 
L 326.092547 294.568656 
L 330.154791 296.410625 
L 334.217035 298.022982 
L 338.78706 299.591591 
L 343.357084 300.930576 
L 348.434889 302.184043 
L 354.020475 303.319184 
L 360.113841 304.314214 
L 366.714988 305.158606 
L 374.331695 305.894585 
L 382.963964 306.494539 
L 393.119574 306.971786 
L 405.814087 307.337728 
L 423.078624 307.595644 
L 449.48321 307.743986 
L 508.89353 307.797419 
L 622.636364 307.799995 
L 622.636364 307.799995 
" clip-path="url(#pdbd7f3ec45)" style="fill: none; stroke: #8b0000; stroke-opacity: 0.633333; stroke-width: 1.5; stroke-linecap: square"/>
   </g>
   <g id="line2d_13">
    <path d="M 115.363636 307.8 
L 135.167076 307.692636 
L 139.22932 307.448723 
L 142.276003 307.069105 
L 144.814906 306.55595 
L 147.353808 305.803638 
L 149.38493 304.989389 
L 151.416052 303.953048 
L 153.447174 302.665116 
L 155.478296 301.098442 
L 157.509419 299.229273 
L 159.540541 297.038192 
L 161.571663 294.510895 
L 163.602785 291.638796 
L 165.633907 288.419436 
L 168.172809 283.913412 
L 170.711712 278.89281 
L 173.250614 273.394026 
L 176.297297 266.235752 
L 179.851761 257.253025 
L 184.421785 245.027465 
L 195.085176 216.213322 
L 198.63964 207.345655 
L 201.686323 200.30844 
L 204.225225 194.924106 
L 206.764128 190.031983 
L 209.30303 185.674505 
L 211.334152 182.595824 
L 213.365274 179.892841 
L 215.396396 177.574063 
L 217.427518 175.644279 
L 218.95086 174.453096 
L 220.474201 173.480779 
L 221.997543 172.725614 
L 223.520885 172.184952 
L 225.044226 171.855266 
L 226.567568 171.732223 
L 228.090909 171.810746 
L 229.614251 172.085088 
L 231.137592 172.548896 
L 233.168714 173.450061 
L 235.199836 174.658167 
L 237.230958 176.154426 
L 239.26208 177.919115 
L 241.800983 180.471326 
L 244.339885 183.370285 
L 247.386568 187.248783 
L 250.433251 191.496634 
L 253.987715 196.827348 
L 258.55774 204.114151 
L 265.158886 215.117031 
L 275.822277 232.903974 
L 281.407862 241.760719 
L 285.977887 248.618799 
L 290.547912 255.06441 
L 294.610156 260.416774 
L 298.6724 265.398266 
L 302.734644 270.00294 
L 306.796888 274.232415 
L 310.351351 277.631401 
L 313.905815 280.757278 
L 317.460278 283.620556 
L 321.014742 286.233423 
L 325.076986 288.930149 
L 329.13923 291.338526 
L 333.201474 293.480416 
L 337.263718 295.377777 
L 341.833743 297.246905 
L 346.403767 298.863578 
L 350.973792 300.255936 
L 356.051597 301.571799 
L 361.637183 302.776174 
L 367.730549 303.844399 
L 374.331695 304.762721 
L 381.440622 305.527823 
L 389.565111 306.180421 
L 399.21294 306.726272 
L 410.891892 307.155049 
L 426.125307 307.474319 
L 447.452088 307.678751 
L 485.027846 307.780313 
L 620.605242 307.799984 
L 622.636364 307.799986 
L 622.636364 307.799986 
" clip-path="url(#pdbd7f3ec45)" style="fill: none; stroke: #8b0000; stroke-opacity: 0.6; stroke-width: 1.5; stroke-linecap: square"/>
   </g>
   <g id="line2d_14">
    <path d="M 115.363636 307.8 
L 137.198198 307.691385 
L 141.768223 307.428004 
L 145.322686 306.986557 
L 147.861589 306.476557 
L 150.400491 305.751455 
L 152.939394 304.762064 
L 154.970516 303.747338 
L 157.001638 302.5083 
L 159.03276 301.023115 
L 161.063882 299.27271 
L 163.095004 297.241463 
L 165.126126 294.917773 
L 167.157248 292.294519 
L 169.696151 288.591115 
L 172.235053 284.422759 
L 174.773956 279.808021 
L 177.820639 273.724596 
L 180.867322 267.115545 
L 184.421785 258.864794 
L 188.99181 247.67167 
L 200.162981 220.017731 
L 203.717445 211.86819 
L 206.764128 205.367649 
L 209.810811 199.411676 
L 212.349713 194.920186 
L 214.888616 190.89657 
L 216.919738 188.033889 
L 218.95086 185.499945 
L 220.981982 183.302598 
L 223.013104 181.446687 
L 225.044226 179.934151 
L 227.075348 178.764186 
L 228.59869 178.109583 
L 230.122031 177.643515 
L 231.645373 177.362964 
L 233.168714 177.264264 
L 234.692056 177.343145 
L 236.215397 177.594789 
L 238.246519 178.189813 
L 240.277641 179.068686 
L 242.308763 180.216443 
L 244.339885 181.617151 
L 246.371007 183.254127 
L 248.90991 185.606288 
L 251.448812 188.266196 
L 254.495495 191.815259 
L 257.542179 195.697361 
L 261.096642 200.569127 
L 265.666667 207.237871 
L 272.267813 217.344514 
L 284.962326 236.873896 
L 290.547912 245.013365 
L 295.625717 252.002384 
L 300.195741 257.90166 
L 304.257985 262.808442 
L 308.320229 267.385142 
L 312.382473 271.627018 
L 316.444717 275.535515 
L 320.506962 279.117139 
L 324.569206 282.382427 
L 328.63145 285.345009 
L 332.693694 288.020779 
L 336.755938 290.427173 
L 340.818182 292.582556 
L 344.880426 294.505704 
L 349.45045 296.415007 
L 354.020475 298.080299 
L 359.09828 299.674991 
L 364.176085 301.031998 
L 369.761671 302.286053 
L 375.855037 303.41032 
L 382.456183 304.388302 
L 389.565111 305.213717 
L 397.689599 305.928052 
L 406.829648 306.509161 
L 418.000819 306.989266 
L 431.710893 307.348741 
L 450.498771 307.602734 
L 479.44226 307.747512 
L 545.961507 307.797916 
L 622.636364 307.79996 
L 622.636364 307.79996 
" clip-path="url(#pdbd7f3ec45)" style="fill: none; stroke: #8b0000; stroke-opacity: 0.566667; stroke-width: 1.5; stroke-linecap: square"/>
   </g>
   <g id="line2d_15">
    <path d="M 115.363636 307.8 
L 139.22932 307.69374 
L 143.799345 307.460792 
L 147.353808 307.083418 
L 150.400491 306.548795 
L 152.939394 305.904368 
L 155.478296 305.036064 
L 158.017199 303.903314 
L 160.048321 302.780528 
L 162.079443 301.445312 
L 164.110565 299.881469 
L 166.141687 298.0754 
L 168.172809 296.016573 
L 170.711712 293.077128 
L 173.250614 289.726261 
L 175.789517 285.967858 
L 178.328419 281.81549 
L 181.375102 276.345679 
L 184.421785 270.398766 
L 187.976249 262.955697 
L 192.546274 252.803528 
L 207.271908 219.562433 
L 210.826372 212.319449 
L 213.873055 206.5839 
L 216.919738 201.360772 
L 219.45864 197.442813 
L 221.997543 193.949734 
L 224.028665 191.475719 
L 226.059787 189.295436 
L 228.090909 187.414442 
L 230.122031 185.835881 
L 232.153153 184.560586 
L 234.184275 183.587207 
L 236.215397 182.912344 
L 238.246519 182.530704 
L 240.277641 182.435259 
L 242.308763 182.617419 
L 244.339885 183.067201 
L 246.371007 183.773403 
L 248.402129 184.723779 
L 250.433251 185.905206 
L 252.972154 187.685778 
L 255.511057 189.777525 
L 258.049959 192.151367 
L 261.096642 195.330728 
L 264.143325 198.822604 
L 267.697789 203.224188 
L 272.267813 209.283064 
L 277.853399 217.090272 
L 296.641278 243.672808 
L 301.719083 250.35443 
L 306.796888 256.659142 
L 311.366912 261.97161 
L 315.936937 266.918925 
L 319.999181 271.00122 
L 324.061425 274.785083 
L 328.123669 278.273771 
L 332.185913 281.474363 
L 336.248157 284.396963 
L 340.310401 287.053994 
L 344.372645 289.459556 
L 348.434889 291.628885 
L 353.004914 293.806813 
L 357.574939 295.728888 
L 362.144963 297.417973 
L 367.222768 299.048527 
L 372.300573 300.448081 
L 377.886159 301.753384 
L 383.979525 302.935592 
L 390.580672 303.975602 
L 397.689599 304.864237 
L 405.814087 305.643977 
L 414.954136 306.288422 
L 425.617527 306.810912 
L 438.81982 307.222895 
L 456.084357 307.520617 
L 480.965602 307.705393 
L 527.681409 307.788806 
L 622.636364 307.799893 
L 622.636364 307.799893 
" clip-path="url(#pdbd7f3ec45)" style="fill: none; stroke: #8b0000; stroke-opacity: 0.533333; stroke-width: 1.5; stroke-linecap: square"/>
   </g>
   <g id="line2d_16">
    <path d="M 115.363636 307.8 
L 141.260442 307.698872 
L 146.338247 307.460676 
L 150.400491 307.047842 
L 153.447174 306.536066 
L 156.493857 305.790438 
L 159.03276 304.948614 
L 161.571663 303.870529 
L 164.110565 302.524152 
L 166.649468 300.880406 
L 169.18837 298.91449 
L 171.727273 296.607048 
L 174.266175 293.945126 
L 176.805078 290.922886 
L 179.34398 287.542051 
L 181.882883 283.812082 
L 184.929566 278.899868 
L 187.976249 273.553267 
L 191.530713 266.843315 
L 195.592957 258.688939 
L 201.686323 245.894515 
L 209.810811 228.890192 
L 213.873055 220.881054 
L 217.427518 214.344364 
L 220.474201 209.178908 
L 223.520885 204.479308 
L 226.059787 200.954066 
L 228.59869 197.808612 
L 231.137592 195.060336 
L 233.168714 193.156153 
L 235.199836 191.518221 
L 237.230958 190.148655 
L 239.26208 189.047707 
L 241.293202 188.213868 
L 243.324324 187.643977 
L 245.355446 187.333343 
L 247.386568 187.275866 
L 249.41769 187.464174 
L 251.448812 187.889758 
L 253.479934 188.543103 
L 255.511057 189.41383 
L 257.542179 190.490825 
L 260.081081 192.109235 
L 262.619984 194.007694 
L 265.158886 196.161497 
L 268.205569 199.047666 
L 271.760033 202.775461 
L 275.314496 206.826214 
L 279.884521 212.401884 
L 285.470106 219.597654 
L 306.796888 247.49134 
L 312.382473 254.220653 
L 317.460278 259.973396 
L 322.030303 264.821657 
L 326.600328 269.340943 
L 331.170352 273.52363 
L 335.232596 276.958534 
L 339.29484 280.130776 
L 343.357084 283.047065 
L 347.419328 285.716511 
L 351.989353 288.438268 
L 356.559378 290.879081 
L 361.129402 293.057899 
L 365.699427 294.994397 
L 370.777232 296.88601 
L 375.855037 298.529845 
L 380.932842 299.951846 
L 386.518428 301.289161 
L 392.611794 302.511642 
L 399.21294 303.59816 
L 406.321867 304.537033 
L 414.446355 305.37135 
L 423.586405 306.07102 
L 434.249795 306.647954 
L 446.944308 307.098342 
L 463.193284 307.434803 
L 485.535627 307.655665 
L 523.111384 307.771731 
L 622.636364 307.799728 
L 622.636364 307.799728 
" clip-path="url(#pdbd7f3ec45)" style="fill: none; stroke: #8b0000; stroke-opacity: 0.5; stroke-width: 1.5; stroke-linecap: square"/>
   </g>
   <g id="line2d_17">
    <path d="M 115.363636 307.8 
L 143.799345 307.693202 
L 149.38493 307.433869 
L 153.447174 307.032796 
L 157.001638 306.452287 
L 160.048321 305.726275 
L 162.587224 304.923172 
L 165.126126 303.910126 
L 167.665029 302.660445 
L 170.203931 301.149792 
L 172.742834 299.357191 
L 175.281736 297.265936 
L 177.820639 294.864344 
L 180.359541 292.146344 
L 182.898444 289.111866 
L 185.437346 285.767044 
L 188.484029 281.361391 
L 191.530713 276.559588 
L 195.085176 270.516317 
L 199.14742 263.136464 
L 204.733006 252.441961 
L 215.904177 230.857179 
L 219.966421 223.511856 
L 223.520885 217.51098 
L 226.567568 212.757888 
L 229.614251 208.418117 
L 232.153153 205.147627 
L 234.692056 202.212756 
L 237.230958 199.628906 
L 239.769861 197.40735 
L 241.800983 195.895945 
L 243.832105 194.623007 
L 245.863227 193.588903 
L 247.894349 192.792541 
L 249.925471 192.23146 
L 251.956593 191.901917 
L 253.987715 191.79899 
L 256.018837 191.916675 
L 258.049959 192.247998 
L 260.081081 192.785117 
L 262.112203 193.51943 
L 264.651106 194.700476 
L 267.190008 196.15589 
L 269.728911 197.865388 
L 272.775594 200.222544 
L 275.822277 202.878124 
L 279.37674 206.30346 
L 283.438984 210.577293 
L 288.009009 215.741074 
L 293.594595 222.402045 
L 305.781327 237.418048 
L 313.398034 246.589849 
L 319.4914 253.576155 
L 324.569206 259.080827 
L 329.647011 264.254684 
L 334.217035 268.607081 
L 338.78706 272.660531 
L 343.357084 276.411384 
L 347.927109 279.86154 
L 352.497133 283.017433 
L 357.067158 285.889091 
L 361.637183 288.489286 
L 366.207207 290.832779 
L 370.777232 292.935667 
L 375.855037 295.010557 
L 380.932842 296.832816 
L 386.010647 298.425864 
L 391.596233 299.940627 
L 397.181818 301.234458 
L 403.275184 302.425611 
L 409.876331 303.492762 
L 416.985258 304.423136 
L 425.109746 305.258339 
L 434.249795 305.967105 
L 444.913186 306.559751 
L 457.607699 307.030278 
L 473.348894 307.38109 
L 494.675676 307.621191 
L 528.69697 307.756561 
L 612.480753 307.798951 
L 622.636364 307.799345 
L 622.636364 307.799345 
" clip-path="url(#pdbd7f3ec45)" style="fill: none; stroke: #8b0000; stroke-opacity: 0.466667; stroke-width: 1.5; stroke-linecap: square"/>
   </g>
   <g id="line2d_18">
    <path d="M 115.363636 307.8 
L 146.338247 307.690991 
L 151.923833 307.452083 
L 156.493857 307.035777 
L 160.048321 306.498211 
L 163.095004 305.838009 
L 166.141687 304.950866 
L 168.68059 304.008911 
L 171.219492 302.858714 
L 173.758395 301.479681 
L 176.297297 299.853841 
L 178.8362 297.966556 
L 181.375102 295.807125 
L 183.914005 293.369276 
L 186.452907 290.651509 
L 189.49959 287.025947 
L 192.546274 283.018144 
L 195.592957 278.653846 
L 199.14742 273.159169 
L 203.209664 266.435892 
L 208.287469 257.553685 
L 223.520885 230.493841 
L 227.583129 223.886192 
L 231.137592 218.52389 
L 234.184275 214.298632 
L 237.230958 210.45795 
L 239.769861 207.575027 
L 242.308763 204.997323 
L 244.847666 202.736672 
L 247.386568 200.80153 
L 249.925471 199.197058 
L 251.956593 198.153006 
L 253.987715 197.321547 
L 256.018837 196.701144 
L 258.049959 196.289162 
L 260.081081 196.081944 
L 262.112203 196.074889 
L 264.143325 196.262537 
L 266.174447 196.638648 
L 268.71335 197.363197 
L 271.252252 198.356502 
L 273.791155 199.602492 
L 276.330057 201.084118 
L 279.37674 203.148028 
L 282.423423 205.493951 
L 285.977887 208.544334 
L 289.532351 211.883578 
L 293.594595 215.989029 
L 298.6724 221.448786 
L 305.781327 229.469688 
L 322.030303 247.948871 
L 328.123669 254.499956 
L 333.709255 260.187187 
L 338.78706 265.051026 
L 343.864865 269.598106 
L 348.434889 273.408111 
L 353.004914 276.946328 
L 357.574939 280.213584 
L 362.144963 283.214672 
L 366.714988 285.957585 
L 371.285012 288.452799 
L 375.855037 290.712651 
L 380.932842 292.964166 
L 386.010647 294.961816 
L 391.088452 296.726031 
L 396.674038 298.421446 
L 402.259623 299.885756 
L 408.352989 301.249519 
L 414.954136 302.486701 
L 422.063063 303.579949 
L 429.679771 304.520786 
L 438.312039 305.351986 
L 447.959869 306.047795 
L 459.13104 306.621635 
L 472.333333 307.071748 
L 489.09009 307.411607 
L 512.447993 307.643113 
L 550.531532 307.766503 
L 622.636364 307.7985 
L 622.636364 307.7985 
" clip-path="url(#pdbd7f3ec45)" style="fill: none; stroke: #8b0000; stroke-opacity: 0.433333; stroke-width: 1.5; stroke-linecap: square"/>
   </g>
   <g id="line2d_19">
    <path d="M 115.363636 307.8 
L 148.87715 307.691825 
L 154.970516 307.444592 
L 159.540541 307.053768 
L 163.602785 306.474726 
L 167.157248 305.726478 
L 170.203931 304.862385 
L 173.250614 303.7567 
L 176.297297 302.377253 
L 178.8362 300.997736 
L 181.375102 299.394008 
L 183.914005 297.554894 
L 186.452907 295.472556 
L 188.99181 293.142841 
L 192.038493 290.020621 
L 195.085176 286.549428 
L 198.131859 282.745082 
L 201.686323 277.918082 
L 205.240786 272.721817 
L 209.810811 265.601885 
L 215.396396 256.448479 
L 228.090909 235.483826 
L 232.660934 228.460537 
L 236.215397 223.367166 
L 239.769861 218.67055 
L 242.816544 215.004366 
L 245.863227 211.702046 
L 248.402129 209.245806 
L 250.941032 207.070252 
L 253.479934 205.183568 
L 256.018837 203.591184 
L 258.55774 202.295865 
L 261.096642 201.29783 
L 263.127764 200.712056 
L 265.158886 200.31303 
L 267.190008 200.097735 
L 269.728911 200.081113 
L 272.267813 200.336527 
L 274.806716 200.853366 
L 277.345618 201.61964 
L 279.884521 202.622196 
L 282.423423 203.846916 
L 285.470106 205.588835 
L 288.51679 207.602423 
L 292.071253 210.258216 
L 295.625717 213.202042 
L 299.687961 216.862595 
L 304.257985 221.281601 
L 309.843571 226.992587 
L 318.98362 236.714314 
L 330.154791 248.548819 
L 336.755938 255.231432 
L 342.849304 261.075525 
L 348.434889 266.106797 
L 353.512695 270.383938 
L 358.5905 274.364685 
L 363.668305 278.043383 
L 368.74611 281.420649 
L 373.316134 284.20712 
L 378.393939 287.030862 
L 383.471744 289.580217 
L 388.54955 291.870141 
L 393.627355 293.917162 
L 398.70516 295.738733 
L 404.290745 297.503369 
L 409.876331 299.040479 
L 415.969697 300.48492 
L 422.570844 301.808219 
L 429.679771 302.990138 
L 437.296478 304.019132 
L 445.420966 304.892104 
L 454.561016 305.650288 
L 465.224406 306.301694 
L 477.411138 306.818663 
L 492.644554 307.230288 
L 512.447993 307.525324 
L 541.391482 307.709252 
L 595.723997 307.789859 
L 622.636364 307.79673 
L 622.636364 307.79673 
" clip-path="url(#pdbd7f3ec45)" style="fill: none; stroke: #8b0000; stroke-opacity: 0.4; stroke-width: 1.5; stroke-linecap: square"/>
   </g>
   <g id="line2d_20">
    <path d="M 115.363636 307.8 
L 151.416052 307.695166 
L 158.017199 307.445462 
L 163.095004 307.029939 
L 167.157248 306.477359 
L 170.711712 305.777959 
L 173.758395 304.981436 
L 176.805078 303.972479 
L 179.851761 302.723577 
L 182.898444 301.209849 
L 185.945127 299.410205 
L 188.99181 297.30837 
L 192.038493 294.893754 
L 195.085176 292.162098 
L 198.131859 289.115901 
L 201.178542 285.764598 
L 204.733006 281.491256 
L 208.287469 276.862278 
L 212.349713 271.198922 
L 217.427518 263.6897 
L 225.044226 251.94427 
L 233.168714 239.517045 
L 237.738739 232.897852 
L 241.800983 227.388016 
L 245.355446 222.929329 
L 248.402129 219.418456 
L 251.448812 216.22402 
L 254.495495 213.369058 
L 257.034398 211.262523 
L 259.573301 209.412426 
L 262.112203 207.82442 
L 264.651106 206.501909 
L 267.190008 205.446128 
L 269.728911 204.656248 
L 272.267813 204.129498 
L 274.806716 203.861303 
L 277.345618 203.845435 
L 279.884521 204.074164 
L 282.423423 204.538429 
L 284.962326 205.227997 
L 287.501229 206.131634 
L 290.547912 207.481517 
L 293.594595 209.100108 
L 296.641278 210.964254 
L 300.195741 213.41765 
L 303.750205 216.134496 
L 307.812449 219.512948 
L 312.382473 223.595447 
L 317.968059 228.882677 
L 326.092547 236.907099 
L 340.310401 250.983082 
L 347.419328 257.677002 
L 353.512695 263.105556 
L 359.09828 267.785237 
L 364.176085 271.770916 
L 369.25389 275.48889 
L 374.331695 278.934114 
L 379.4095 282.106872 
L 384.487305 285.011847 
L 389.565111 287.657244 
L 394.642916 290.053991 
L 399.720721 292.215029 
L 405.306306 294.337055 
L 410.891892 296.211459 
L 416.477477 297.859001 
L 422.570844 299.421919 
L 429.17199 300.868584 
L 435.773137 302.089729 
L 442.882064 303.186371 
L 451.006552 304.204158 
L 459.638821 305.057652 
L 469.28665 305.788558 
L 480.457821 306.407542 
L 493.660115 306.908736 
L 509.909091 307.293495 
L 531.235872 307.564587 
L 563.226044 307.728801 
L 622.636364 307.793183 
L 622.636364 307.793183 
" clip-path="url(#pdbd7f3ec45)" style="fill: none; stroke: #8b0000; stroke-opacity: 0.366667; stroke-width: 1.5; stroke-linecap: square"/>
   </g>
   <g id="line2d_21">
    <path d="M 115.363636 307.8 
L 154.462735 307.690088 
L 161.571663 307.424881 
L 166.649468 307.022534 
L 170.711712 306.502103 
L 174.266175 305.854827 
L 177.820639 304.987414 
L 180.867322 304.039054 
L 183.914005 302.876825 
L 186.960688 301.479458 
L 190.007371 299.828723 
L 193.054054 297.910257 
L 196.100737 295.714256 
L 199.14742 293.236033 
L 202.194103 290.476383 
L 205.240786 287.441791 
L 208.79525 283.570494 
L 212.349713 279.370588 
L 216.411957 274.217871 
L 220.981982 268.056486 
L 227.075348 259.440337 
L 240.277641 240.627105 
L 244.847666 234.530735 
L 248.90991 229.460625 
L 252.464373 225.356385 
L 256.018837 221.60855 
L 259.06552 218.708153 
L 262.112203 216.116155 
L 265.158886 213.847658 
L 267.697789 212.212464 
L 270.236691 210.813969 
L 272.775594 209.654604 
L 275.314496 208.735008 
L 277.853399 208.054111 
L 280.392301 207.609242 
L 282.931204 207.396233 
L 285.470106 207.409544 
L 288.009009 207.642388 
L 290.547912 208.086866 
L 293.086814 208.734095 
L 296.133497 209.764648 
L 299.18018 211.054969 
L 302.226863 212.585748 
L 305.781327 214.648646 
L 309.33579 216.978443 
L 313.398034 219.925056 
L 317.968059 223.542767 
L 323.045864 227.857575 
L 329.647011 233.788166 
L 341.833743 245.134242 
L 351.481572 253.97618 
L 358.5905 260.189108 
L 364.683866 265.226753 
L 370.269451 269.572888 
L 375.855037 273.636969 
L 381.440622 277.406656 
L 386.518428 280.574103 
L 391.596233 283.495377 
L 396.674038 286.175149 
L 401.751843 288.620977 
L 407.337428 291.052922 
L 412.923014 293.229002 
L 418.5086 295.16616 
L 424.601966 297.027953 
L 430.695332 298.650367 
L 437.296478 300.165083 
L 443.897625 301.455315 
L 451.006552 302.625049 
L 458.62326 303.660407 
L 467.255528 304.604444 
L 476.903358 305.423839 
L 487.566749 306.101248 
L 500.261261 306.672621 
L 515.494676 307.120339 
L 534.790336 307.449185 
L 561.702703 307.665239 
L 607.402948 307.775493 
L 622.636364 307.786386 
L 622.636364 307.786386 
" clip-path="url(#pdbd7f3ec45)" style="fill: none; stroke: #8b0000; stroke-opacity: 0.333333; stroke-width: 1.5; stroke-linecap: square"/>
   </g>
   <g id="line2d_22">
    <path d="M 115.363636 307.8 
L 157.001638 307.697861 
L 164.618346 307.440842 
L 170.203931 307.029493 
L 174.773956 306.470512 
L 178.8362 305.747119 
L 182.390663 304.898251 
L 185.945127 303.813047 
L 188.99181 302.671012 
L 192.038493 301.314727 
L 195.085176 299.729226 
L 198.131859 297.902836 
L 201.178542 295.82771 
L 204.225225 293.500253 
L 207.271908 290.921414 
L 210.826372 287.602845 
L 214.380835 283.967057 
L 218.443079 279.456519 
L 222.505324 274.615745 
L 227.583129 268.196058 
L 234.692056 258.778818 
L 245.863227 243.940788 
L 250.941032 237.578592 
L 255.003276 232.806243 
L 259.06552 228.389409 
L 262.619984 224.862531 
L 265.666667 222.117125 
L 268.71335 219.646377 
L 271.760033 217.4642 
L 274.806716 215.581123 
L 277.345618 214.245648 
L 279.884521 213.125348 
L 282.423423 212.221125 
L 284.962326 211.532431 
L 287.501229 211.057344 
L 290.040131 210.792654 
L 292.579034 210.733961 
L 295.117936 210.875771 
L 297.656839 211.211607 
L 300.703522 211.860311 
L 303.750205 212.763624 
L 306.796888 213.906062 
L 309.843571 215.271083 
L 313.398034 217.121741 
L 316.952498 219.223221 
L 321.014742 221.894766 
L 325.584767 225.192354 
L 330.662572 229.14768 
L 336.755938 234.189579 
L 345.895987 242.091294 
L 360.621622 254.843173 
L 368.238329 261.118801 
L 374.839476 266.261858 
L 380.932842 270.720343 
L 386.518428 274.541074 
L 392.104013 278.095327 
L 397.689599 281.378372 
L 403.275184 284.391023 
L 408.86077 287.138629 
L 414.446355 289.630133 
L 420.031941 291.87722 
L 425.617527 293.893558 
L 431.710893 295.847673 
L 437.804259 297.56551 
L 444.405405 299.18404 
L 451.006552 300.575949 
L 458.115479 301.850487 
L 465.732187 302.990778 
L 473.856675 303.987309 
L 482.996724 304.881884 
L 493.152334 305.647689 
L 504.831286 306.296927 
L 518.54136 306.825156 
L 535.298116 307.234718 
L 557.132678 307.528667 
L 588.61507 307.709776 
L 622.636364 307.773887 
L 622.636364 307.773887 
" clip-path="url(#pdbd7f3ec45)" style="fill: none; stroke: #8b0000; stroke-opacity: 0.3; stroke-width: 1.5; stroke-linecap: square"/>
   </g>
   <g id="line2d_23">
    <path d="M 115.363636 307.8 
L 160.048321 307.697715 
L 168.172809 307.436052 
L 173.758395 307.048481 
L 178.328419 306.533407 
L 182.390663 305.876073 
L 186.452907 304.986395 
L 190.007371 303.983771 
L 193.561835 302.743608 
L 197.116298 301.24178 
L 200.162981 299.730892 
L 203.209664 298.003264 
L 206.256347 296.052431 
L 209.810811 293.490651 
L 213.365274 290.623083 
L 216.919738 287.45881 
L 220.474201 284.014136 
L 224.536446 279.764157 
L 229.10647 274.6381 
L 234.184275 268.607063 
L 241.800983 259.168008 
L 252.464373 245.971807 
L 257.542179 240.030492 
L 262.112203 235.022082 
L 266.174447 230.910205 
L 269.728911 227.617008 
L 273.283374 224.638744 
L 276.330057 222.354863 
L 279.37674 220.331992 
L 282.423423 218.579273 
L 285.470106 217.103029 
L 288.51679 215.906838 
L 291.563473 214.991637 
L 294.102375 214.442556 
L 296.641278 214.085405 
L 299.18018 213.916972 
L 302.226863 213.957998 
L 305.273546 214.255779 
L 308.320229 214.799759 
L 311.366912 215.577962 
L 314.413595 216.577214 
L 317.968059 218.003462 
L 321.522523 219.687513 
L 325.076986 221.604606 
L 329.13923 224.04841 
L 333.709255 227.074509 
L 338.78706 230.717659 
L 344.880426 235.38255 
L 353.004914 241.911226 
L 373.316134 258.362374 
L 380.425061 263.785628 
L 387.026208 268.549312 
L 393.119574 272.678216 
L 399.21294 276.528382 
L 404.798526 279.803026 
L 410.384111 282.830842 
L 415.969697 285.613369 
L 421.555283 288.155879 
L 427.140868 290.46661 
L 433.234234 292.735455 
L 439.3276 294.75684 
L 445.420966 296.548116 
L 452.022113 298.250064 
L 458.62326 299.72665 
L 465.732187 301.091192 
L 473.348894 302.324177 
L 481.473382 303.413268 
L 490.613432 304.402476 
L 500.261261 305.222859 
L 511.432432 305.943667 
L 524.126945 306.534012 
L 539.36036 307.010636 
L 558.148239 307.367153 
L 583.537265 307.613358 
L 622.636364 307.751795 
L 622.636364 307.751795 
" clip-path="url(#pdbd7f3ec45)" style="fill: none; stroke: #8b0000; stroke-opacity: 0.266667; stroke-width: 1.5; stroke-linecap: square"/>
   </g>
   <g id="line2d_24">
    <path d="M 115.363636 307.8 
L 163.602785 307.690876 
L 171.727273 307.438149 
L 177.820639 307.033634 
L 182.898444 306.475036 
L 187.468468 305.739956 
L 191.530713 304.857631 
L 195.085176 303.878869 
L 198.63964 302.683103 
L 202.194103 301.249932 
L 205.748567 299.562425 
L 209.30303 297.607976 
L 212.857494 295.379017 
L 216.411957 292.87356 
L 219.966421 290.095535 
L 223.520885 287.054929 
L 227.583129 283.279178 
L 232.153153 278.688052 
L 237.230958 273.231815 
L 243.324324 266.328624 
L 262.619984 244.156192 
L 267.697789 238.825998 
L 271.760033 234.863526 
L 275.822277 231.220691 
L 279.37674 228.32744 
L 282.931204 225.732694 
L 285.977887 223.760184 
L 289.02457 222.02939 
L 292.071253 220.546825 
L 295.117936 219.316653 
L 298.164619 218.340759 
L 301.211302 217.618851 
L 304.257985 217.148579 
L 307.304668 216.925678 
L 310.351351 216.944125 
L 313.398034 217.196302 
L 316.444717 217.673174 
L 319.4914 218.364468 
L 322.538084 219.258849 
L 326.092547 220.542641 
L 329.647011 222.065624 
L 333.709255 224.071422 
L 337.771499 226.328447 
L 342.341523 229.126242 
L 347.419328 232.500599 
L 353.512695 236.832953 
L 361.637183 242.92142 
L 386.010647 261.399612 
L 393.119574 266.424982 
L 399.720721 270.832614 
L 405.814087 274.651242 
L 411.907453 278.213168 
L 418.000819 281.509767 
L 424.094185 284.53879 
L 430.187551 287.303263 
L 436.280917 289.810456 
L 442.374283 292.070925 
L 448.467649 294.097657 
L 455.068796 296.046556 
L 461.669943 297.758358 
L 468.77887 299.360335 
L 475.887797 300.736968 
L 483.504505 301.99025 
L 491.628993 303.106384 
L 500.769042 304.129489 
L 510.416871 304.986683 
L 521.588043 305.748526 
L 534.282555 306.380901 
L 549.00819 306.885691 
L 567.288288 307.279078 
L 591.153972 307.556446 
L 622.636364 307.714185 
L 622.636364 307.714185 
" clip-path="url(#pdbd7f3ec45)" style="fill: none; stroke: #8b0000; stroke-opacity: 0.233333; stroke-width: 1.5; stroke-linecap: square"/>
   </g>
   <g id="line2d_25">
    <path d="M 115.363636 307.8 
L 166.649468 307.695234 
L 175.281736 307.446104 
L 181.882883 307.031902 
L 186.960688 306.504996 
L 191.530713 305.822394 
L 195.592957 305.011789 
L 199.655201 303.97634 
L 203.209664 302.862433 
L 206.764128 301.535791 
L 210.318591 299.98147 
L 213.873055 298.188056 
L 217.427518 296.148262 
L 220.981982 293.859395 
L 224.536446 291.323661 
L 228.59869 288.132953 
L 232.660934 284.648392 
L 237.230958 280.411184 
L 242.308763 275.36902 
L 248.402129 268.969984 
L 259.06552 257.350506 
L 267.190008 248.656252 
L 272.775594 243.011143 
L 277.345618 238.699333 
L 281.407862 235.15343 
L 285.470106 231.917502 
L 289.02457 229.365961 
L 292.579034 227.094444 
L 296.133497 225.117006 
L 299.18018 223.664021 
L 302.226863 222.439013 
L 305.273546 221.444325 
L 308.320229 220.680417 
L 311.366912 220.145958 
L 314.413595 219.837935 
L 317.460278 219.751774 
L 320.506962 219.881475 
L 323.553645 220.21975 
L 326.600328 220.758169 
L 330.154791 221.626664 
L 333.709255 222.738316 
L 337.263718 224.075477 
L 341.325962 225.855906 
L 345.388206 227.877794 
L 349.958231 230.404476 
L 355.036036 233.475782 
L 360.621622 237.109834 
L 367.730549 242.011929 
L 378.90172 250.03559 
L 392.611794 259.839337 
L 400.736282 265.3838 
L 407.845209 269.979922 
L 414.446355 273.994463 
L 421.047502 277.741363 
L 427.140868 280.950727 
L 433.234234 283.916112 
L 439.3276 286.638096 
L 445.420966 289.121331 
L 451.514333 291.37372 
L 458.115479 293.565397 
L 464.716626 295.513943 
L 471.317772 297.236549 
L 478.426699 298.859723 
L 486.043407 300.357343 
L 493.660115 301.632267 
L 502.292383 302.841513 
L 511.432432 303.887482 
L 521.588043 304.813191 
L 532.759214 305.597812 
L 545.453726 306.256929 
L 560.179361 306.790515 
L 577.951679 307.204515 
L 600.801802 307.504848 
L 622.636364 307.652415 
L 622.636364 307.652415 
" clip-path="url(#pdbd7f3ec45)" style="fill: none; stroke: #8b0000; stroke-opacity: 0.2; stroke-width: 1.5; stroke-linecap: square"/>
   </g>
   <g id="line2d_26">
    <path d="M 115.363636 307.8 
L 170.203931 307.693106 
L 179.34398 307.437252 
L 185.945127 307.041619 
L 191.530713 306.488664 
L 196.608518 305.751666 
L 201.178542 304.851384 
L 205.240786 303.830037 
L 209.30303 302.574172 
L 213.365274 301.061644 
L 216.919738 299.513519 
L 220.474201 297.746617 
L 224.028665 295.755991 
L 228.090909 293.205964 
L 232.153153 290.367785 
L 236.215397 287.253945 
L 240.785422 283.446118 
L 245.355446 279.352688 
L 250.941032 274.032387 
L 258.049959 266.91373 
L 275.314496 249.467653 
L 280.900082 244.230936 
L 285.470106 240.235764 
L 289.532351 236.950589 
L 293.594595 233.950428 
L 297.149058 231.581256 
L 300.703522 229.467306 
L 304.257985 227.620851 
L 307.812449 226.050959 
L 310.859132 224.93002 
L 313.905815 224.018572 
L 316.952498 223.31693 
L 319.999181 222.823881 
L 323.045864 222.536782 
L 326.092547 222.451652 
L 329.13923 222.563285 
L 332.693694 222.933727 
L 336.248157 223.551629 
L 339.802621 224.403699 
L 343.357084 225.475338 
L 347.419328 226.948815 
L 351.481572 228.664006 
L 356.051597 230.850755 
L 361.129402 233.556468 
L 366.714988 236.809833 
L 373.316134 240.941633 
L 381.440622 246.30915 
L 409.876331 265.332237 
L 417.493038 270.040431 
L 424.601966 274.176335 
L 431.203112 277.767529 
L 437.804259 281.104179 
L 444.405405 284.179638 
L 451.006552 286.99342 
L 457.607699 289.550084 
L 464.208845 291.858179 
L 470.809992 293.92929 
L 477.411138 295.77718 
L 484.520066 297.535038 
L 491.628993 299.071675 
L 499.2457 300.495726 
L 507.370188 301.788425 
L 516.002457 302.937511 
L 525.650287 303.987049 
L 535.805897 304.867453 
L 547.484848 305.64882 
L 560.687142 306.299109 
L 575.920557 306.821072 
L 594.708436 307.231596 
L 619.0819 307.526172 
L 622.636364 307.554383 
L 622.636364 307.554383 
" clip-path="url(#pdbd7f3ec45)" style="fill: none; stroke: #8b0000; stroke-opacity: 0.166667; stroke-width: 1.5; stroke-linecap: square"/>
   </g>
   <g id="line2d_27">
    <path d="M 115.363636 307.8 
L 173.758395 307.693078 
L 183.406224 307.434785 
L 190.515152 307.022808 
L 196.100737 306.490962 
L 201.178542 305.794039 
L 205.748567 304.952824 
L 210.318591 303.873813 
L 214.380835 302.689602 
L 218.443079 301.273367 
L 222.505324 299.609463 
L 226.567568 297.686747 
L 230.629812 295.499286 
L 234.692056 293.046884 
L 238.7543 290.335396 
L 243.324324 286.990467 
L 247.894349 283.359185 
L 252.972154 279.031705 
L 259.06552 273.514819 
L 267.190008 265.813338 
L 280.900082 252.781557 
L 286.993448 247.32972 
L 292.071253 243.085678 
L 296.641278 239.558632 
L 300.703522 236.692437 
L 304.765766 234.106225 
L 308.320229 232.089717 
L 311.874693 230.315129 
L 315.429156 228.791007 
L 318.98362 227.523182 
L 322.538084 226.514834 
L 326.092547 225.766593 
L 329.647011 225.276672 
L 333.201474 225.041024 
L 336.755938 225.053526 
L 340.310401 225.306176 
L 343.864865 225.7893 
L 347.419328 226.491773 
L 350.973792 227.401233 
L 355.036036 228.676871 
L 359.09828 230.184131 
L 363.668305 232.128993 
L 368.74611 234.56129 
L 374.331695 237.514782 
L 380.425061 241.001504 
L 388.041769 245.638937 
L 399.21294 252.740577 
L 415.461916 263.049215 
L 424.094185 268.260903 
L 431.710893 272.612231 
L 438.81982 276.426159 
L 445.928747 279.978686 
L 452.529894 283.032338 
L 459.13104 285.845935 
L 465.732187 288.420666 
L 472.333333 290.761782 
L 478.93448 292.87774 
L 486.043407 294.917178 
L 493.152334 296.723922 
L 500.769042 298.421127 
L 508.385749 299.893172 
L 516.510238 301.240288 
L 525.142506 302.448225 
L 534.790336 303.562161 
L 544.945946 304.506491 
L 556.117117 305.322192 
L 568.81163 306.022491 
L 583.537265 306.604144 
L 601.309582 307.069694 
L 622.636364 307.403828 
L 622.636364 307.403828 
" clip-path="url(#pdbd7f3ec45)" style="fill: none; stroke: #8b0000; stroke-opacity: 0.133333; stroke-width: 1.5; stroke-linecap: square"/>
   </g>
   <g id="line2d_28">
    <path d="M 115.363636 307.8 
L 177.312858 307.694881 
L 187.468468 307.437988 
L 194.577396 307.052775 
L 200.670762 306.509479 
L 206.256347 305.778183 
L 211.334152 304.872395 
L 215.904177 303.826473 
L 220.474201 302.533833 
L 224.536446 301.158718 
L 228.59869 299.557115 
L 232.660934 297.719894 
L 236.723178 295.64239 
L 240.785422 293.324821 
L 244.847666 290.772542 
L 249.41769 287.634037 
L 253.987715 284.234773 
L 259.06552 280.189315 
L 265.158886 275.033319 
L 273.283374 267.823993 
L 289.02457 253.781721 
L 295.117936 248.688579 
L 300.195741 244.723004 
L 304.765766 241.423263 
L 308.82801 238.736189 
L 312.890254 236.304382 
L 316.952498 234.146675 
L 320.506962 232.495325 
L 324.061425 231.072747 
L 327.615889 229.884076 
L 331.170352 228.932175 
L 334.724816 228.217713 
L 338.279279 227.739279 
L 341.833743 227.493504 
L 345.388206 227.475217 
L 348.94267 227.677599 
L 352.497133 228.092363 
L 356.051597 228.709928 
L 360.113841 229.650285 
L 364.176085 230.824108 
L 368.74611 232.400456 
L 373.316134 234.220753 
L 378.393939 236.494428 
L 383.979525 239.254701 
L 390.072891 242.515649 
L 397.689599 246.860434 
L 408.352989 253.230472 
L 427.648649 264.78225 
L 436.788698 269.964869 
L 444.913186 274.30857 
L 452.529894 278.11633 
L 459.638821 281.419072 
L 466.747748 284.469214 
L 473.856675 287.263758 
L 480.965602 289.805271 
L 488.074529 292.100777 
L 495.183456 294.160734 
L 502.292383 295.998117 
L 509.909091 297.736461 
L 518.033579 299.349479 
L 526.158067 300.737157 
L 534.790336 301.991496 
L 544.438165 303.158534 
L 554.593776 304.157592 
L 565.764947 305.029802 
L 578.459459 305.787692 
L 592.677314 306.407594 
L 609.43407 306.909573 
L 622.636364 307.179783 
L 622.636364 307.179783 
" clip-path="url(#pdbd7f3ec45)" style="fill: none; stroke: #8b0000; stroke-opacity: 0.1; stroke-width: 1.5; stroke-linecap: square"/>
   </g>
   <g id="line2d_29">
    <path d="M 115.363636 307.8 
L 181.375102 307.691296 
L 191.530713 307.446044 
L 199.14742 307.055066 
L 205.748567 306.488841 
L 211.334152 305.786587 
L 216.411957 304.927973 
L 220.981982 303.945719 
L 225.552007 302.740258 
L 230.122031 301.290892 
L 234.184275 299.7844 
L 238.246519 298.064051 
L 242.308763 296.12554 
L 246.878788 293.683891 
L 251.448812 290.972361 
L 256.018837 288.004384 
L 261.096642 284.430899 
L 266.682228 280.208623 
L 273.283374 274.908667 
L 282.423423 267.235442 
L 295.625717 256.149752 
L 302.226863 250.915943 
L 307.812449 246.781516 
L 312.382473 243.652456 
L 316.952498 240.788359 
L 321.014742 238.488517 
L 325.076986 236.437973 
L 329.13923 234.650275 
L 332.693694 233.309696 
L 336.248157 232.182796 
L 339.802621 231.272253 
L 343.357084 230.578853 
L 346.911548 230.101576 
L 350.466011 229.837701 
L 354.020475 229.782927 
L 357.574939 229.931506 
L 361.637183 230.341213 
L 365.699427 230.994912 
L 369.761671 231.878566 
L 373.823915 232.976753 
L 378.393939 234.448061 
L 382.963964 236.145275 
L 388.041769 238.264985 
L 393.627355 240.840083 
L 400.228501 244.149837 
L 407.845209 248.234239 
L 418.5086 254.233667 
L 439.835381 266.291499 
L 448.97543 271.178473 
L 457.099918 275.279682 
L 464.716626 278.881732 
L 472.333333 282.228172 
L 479.44226 285.11118 
L 486.551188 287.759216 
L 493.660115 290.174394 
L 500.769042 292.362758 
L 508.385749 294.46613 
L 516.002457 296.333671 
L 524.126945 298.083928 
L 532.251433 299.605183 
L 540.883702 300.994783 
L 550.023751 302.239569 
L 559.671581 303.332625 
L 570.334971 304.315081 
L 582.013923 305.164605 
L 595.216216 305.895302 
L 610.449631 306.504852 
L 622.636364 306.856337 
L 622.636364 306.856337 
" clip-path="url(#pdbd7f3ec45)" style="fill: none; stroke: #8b0000; stroke-opacity: 0.066667; stroke-width: 1.5; stroke-linecap: square"/>
   </g>
   <g id="line2d_30">
    <path d="M 115.363636 307.8 
L 185.437346 307.689696 
L 196.100737 307.44018 
L 204.225225 307.033415 
L 210.826372 306.485125 
L 216.411957 305.816117 
L 221.489762 305.007301 
L 226.567568 303.975384 
L 231.137592 302.832162 
L 235.707617 301.466844 
L 240.277641 299.864906 
L 244.847666 298.016287 
L 249.41769 295.916088 
L 253.987715 293.565087 
L 258.55774 290.970039 
L 263.635545 287.816214 
L 268.71335 284.403193 
L 274.298935 280.390947 
L 280.900082 275.376504 
L 290.547912 267.735634 
L 303.750205 257.311863 
L 310.351351 252.393109 
L 315.936937 248.501605 
L 321.014742 245.235525 
L 325.584767 242.552725 
L 330.154791 240.139773 
L 334.217035 238.238639 
L 338.279279 236.579198 
L 342.341523 235.170228 
L 346.403767 234.017571 
L 350.466011 233.124203 
L 354.020475 232.555444 
L 357.574939 232.183922 
L 361.637183 231.997025 
L 365.699427 232.057401 
L 369.761671 232.356528 
L 373.823915 232.884077 
L 377.886159 233.628161 
L 382.456183 234.7076 
L 387.026208 236.02397 
L 392.104013 237.738116 
L 397.181818 239.687109 
L 402.767404 242.064587 
L 409.36855 245.134049 
L 416.985258 248.94128 
L 427.140868 254.297584 
L 454.561016 268.912051 
L 463.701065 273.462521 
L 471.825553 277.271327 
L 479.44226 280.612013 
L 487.058968 283.713996 
L 494.675676 286.569335 
L 502.292383 289.176529 
L 509.909091 291.539354 
L 517.525799 293.665763 
L 525.142506 295.566881 
L 533.266994 297.361541 
L 541.391482 298.93323 
L 550.023751 300.380244 
L 559.1638 301.687439 
L 568.81163 302.845681 
L 579.47502 303.896994 
L 591.153972 304.816017 
L 603.848485 305.58947 
L 618.57412 306.254924 
L 622.636364 306.402848 
L 622.636364 306.402848 
" clip-path="url(#pdbd7f3ec45)" style="fill: none; stroke: #8b0000; stroke-opacity: 0.033333; stroke-width: 1.5; stroke-linecap: square"/>
   </g>
   <g id="text_1">
    <!-- redist -->
    <g style="fill: #8b0000" transform="translate(262.98 300.70125) scale(1.2 -1.2)">
     <defs>
      <path id="DejaVuSerif-72" d="M 3059 3328 
L 3059 2497 
L 2728 2497 
Q 2713 2744 2591 2866 
Q 2469 2988 2234 2988 
Q 1809 2988 1582 2694 
Q 1356 2400 1356 1850 
L 1356 331 
L 2022 331 
L 2022 0 
L 263 0 
L 263 331 
L 781 331 
L 781 2994 
L 231 2994 
L 231 3322 
L 1356 3322 
L 1356 2731 
Q 1525 3078 1790 3245 
Q 2056 3413 2438 3413 
Q 2578 3413 2733 3391 
Q 2888 3369 3059 3328 
z
" transform="scale(0.015625)"/>
      <path id="DejaVuSerif-65" d="M 3469 1600 
L 991 1600 
L 991 1575 
Q 991 903 1244 561 
Q 1497 219 1991 219 
Q 2369 219 2611 417 
Q 2853 616 2950 1006 
L 3413 1006 
Q 3275 459 2904 184 
Q 2534 -91 1931 -91 
Q 1203 -91 761 389 
Q 319 869 319 1663 
Q 319 2450 753 2931 
Q 1188 3413 1894 3413 
Q 2647 3413 3050 2948 
Q 3453 2484 3469 1600 
z
M 2791 1931 
Q 2772 2513 2545 2808 
Q 2319 3103 1894 3103 
Q 1497 3103 1269 2806 
Q 1041 2509 991 1931 
L 2791 1931 
z
" transform="scale(0.015625)"/>
      <path id="DejaVuSerif-64" d="M 3359 331 
L 3909 331 
L 3909 0 
L 2784 0 
L 2784 519 
Q 2616 206 2355 57 
Q 2094 -91 1709 -91 
Q 1097 -91 708 395 
Q 319 881 319 1663 
Q 319 2444 706 2928 
Q 1094 3413 1709 3413 
Q 2094 3413 2355 3264 
Q 2616 3116 2784 2803 
L 2784 4531 
L 2241 4531 
L 2241 4863 
L 3359 4863 
L 3359 331 
z
M 2784 1497 
L 2784 1825 
Q 2784 2422 2554 2737 
Q 2325 3053 1888 3053 
Q 1444 3053 1217 2703 
Q 991 2353 991 1663 
Q 991 975 1217 622 
Q 1444 269 1888 269 
Q 2325 269 2554 583 
Q 2784 897 2784 1497 
z
" transform="scale(0.015625)"/>
      <path id="DejaVuSerif-69" d="M 622 4353 
Q 622 4497 726 4603 
Q 831 4709 978 4709 
Q 1122 4709 1226 4603 
Q 1331 4497 1331 4353 
Q 1331 4206 1228 4103 
Q 1125 4000 978 4000 
Q 831 4000 726 4103 
Q 622 4206 622 4353 
z
M 1356 331 
L 1900 331 
L 1900 0 
L 231 0 
L 231 331 
L 781 331 
L 781 2988 
L 231 2988 
L 231 3322 
L 1356 3322 
L 1356 331 
z
" transform="scale(0.015625)"/>
      <path id="DejaVuSerif-73" d="M 359 184 
L 359 959 
L 691 959 
Q 703 588 923 403 
Q 1144 219 1575 219 
Q 1963 219 2166 364 
Q 2369 509 2369 788 
Q 2369 1006 2220 1140 
Q 2072 1275 1594 1428 
L 1178 1569 
Q 750 1706 558 1912 
Q 366 2119 366 2438 
Q 366 2894 700 3153 
Q 1034 3413 1625 3413 
Q 1888 3413 2178 3344 
Q 2469 3275 2778 3144 
L 2778 2419 
L 2447 2419 
Q 2434 2741 2221 2922 
Q 2009 3103 1644 3103 
Q 1281 3103 1095 2975 
Q 909 2847 909 2591 
Q 909 2381 1050 2254 
Q 1191 2128 1613 1997 
L 2069 1856 
Q 2541 1709 2748 1489 
Q 2956 1269 2956 922 
Q 2956 450 2595 179 
Q 2234 -91 1600 -91 
Q 1278 -91 972 -22 
Q 666 47 359 184 
z
" transform="scale(0.015625)"/>
      <path id="DejaVuSerif-74" d="M 691 2988 
L 184 2988 
L 184 3322 
L 691 3322 
L 691 4353 
L 1269 4353 
L 1269 3322 
L 2350 3322 
L 2350 2988 
L 1269 2988 
L 1269 878 
Q 1269 456 1350 337 
Q 1431 219 1650 219 
Q 1875 219 1978 351 
Q 2081 484 2088 781 
L 2522 781 
Q 2497 328 2275 118 
Q 2053 -91 1600 -91 
Q 1103 -91 897 129 
Q 691 350 691 878 
L 691 2988 
z
" transform="scale(0.015625)"/>
     </defs>
     <use xlink:href="#DejaVuSerif-72"/>
     <use xlink:href="#DejaVuSerif-65" x="47.802734"/>
     <use xlink:href="#DejaVuSerif-64" x="106.982422"/>
     <use xlink:href="#DejaVuSerif-69" x="170.996094"/>
     <use xlink:href="#DejaVuSerif-73" x="202.978516"/>
     <use xlink:href="#DejaVuSerif-74" x="254.296875"/>
    </g>
   </g>
  </g>
 </g>
 <defs>
  <clipPath id="pdbd7f3ec45">
   <rect x="90" y="43.2" width="558" height="277.2"/>
  </clipPath>
 </defs>
</svg>
